<svg width="52" height="52" viewBox="0 0 52 52" fill="none" xmlns="http://www.w3.org/2000/svg">
<rect width="52" height="52" fill="#4A82EE"/>
<path d="M22.4 33.7L28 28.1L33.6 33.7L35.75 31.55L30.1 26L35.65 20.45L33.5 18.3L28 23.9L22.4 18.3L20.25 20.45L25.9 26L20.25 31.55L22.4 33.7ZM6 26L14.45 14.05C14.8833 13.45 15.4 12.9583 16 12.575C16.6 12.1917 17.2667 12 18 12H39C39.8333 12 40.5417 12.2917 41.125 12.875C41.7083 13.4583 42 14.1667 42 15V37C42 37.8333 41.7083 38.5417 41.125 39.125C40.5417 39.7083 39.8333 40 39 40H18C17.2667 40 16.6 39.8083 16 39.425C15.4 39.0417 14.8833 38.55 14.45 37.95L6 26ZM9.75 26L17.45 37H39V15H17.45L9.75 26ZM39 26V15V37V26Z" fill="#003FB9"/>
</svg>
