<svg width="33" height="33" viewBox="0 0 33 33" fill="none" xmlns="http://www.w3.org/2000/svg">
<rect width="33" height="33" fill="#4A82EE"/>
<rect x="6" y="6" width="21" height="21" rx="2" fill="#003FB9"/>
<path fill-rule="evenodd" clip-rule="evenodd" d="M13 10.5C13 11.8807 11.8807 13 10.5 13C9.11929 13 8 11.8807 8 10.5C8 9.11929 9.11929 8 10.5 8C11.8807 8 13 9.11929 13 10.5ZM25 10.5C25 11.8807 23.8807 13 22.5 13C21.1193 13 20 11.8807 20 10.5C20 9.11929 21.1193 8 22.5 8C23.8807 8 25 9.11929 25 10.5ZM10.5 25C11.8807 25 13 23.8807 13 22.5C13 21.1193 11.8807 20 10.5 20C9.11929 20 8 21.1193 8 22.5C8 23.8807 9.11929 25 10.5 25ZM25 22.5C25 23.8807 23.8807 25 22.5 25C21.1193 25 20 23.8807 20 22.5C20 21.1193 21.1193 20 22.5 20C23.8807 20 25 21.1193 25 22.5ZM16.5 19C17.8807 19 19 17.8807 19 16.5C19 15.1193 17.8807 14 16.5 14C15.1193 14 14 15.1193 14 16.5C14 17.8807 15.1193 19 16.5 19Z" fill="white"/>
</svg>
