<svg width="33" height="33" viewBox="0 0 33 33" fill="none" xmlns="http://www.w3.org/2000/svg">
<rect width="33" height="33" fill="#E63737"/>
<rect x="6" y="6" width="21" height="21" rx="2" fill="#B90000"/>
<path fill-rule="evenodd" clip-rule="evenodd" d="M13 10.5C13 11.8807 11.8807 13 10.5 13C9.11929 13 8 11.8807 8 10.5C8 9.11929 9.11929 8 10.5 8C11.8807 8 13 9.11929 13 10.5ZM19 16.5C19 17.8807 17.8807 19 16.5 19C15.1193 19 14 17.8807 14 16.5C14 15.1193 15.1193 14 16.5 14C17.8807 14 19 15.1193 19 16.5ZM22.5 25C23.8807 25 25 23.8807 25 22.5C25 21.1193 23.8807 20 22.5 20C21.1193 20 20 21.1193 20 22.5C20 23.8807 21.1193 25 22.5 25Z" fill="white"/>
</svg>
