<svg width="33" height="33" viewBox="0 0 33 33" fill="none" xmlns="http://www.w3.org/2000/svg">
<rect width="33" height="33" fill="#FDF187"/>
<rect x="6" y="6" width="21" height="21" rx="2" fill="#FFE606"/>
<path fill-rule="evenodd" clip-rule="evenodd" d="M10.5 13C11.8807 13 13 11.8807 13 10.5C13 9.11929 11.8807 8 10.5 8C9.11929 8 8 9.11929 8 10.5C8 11.8807 9.11929 13 10.5 13ZM22.5 13C23.8807 13 25 11.8807 25 10.5C25 9.11929 23.8807 8 22.5 8C21.1193 8 20 9.11929 20 10.5C20 11.8807 21.1193 13 22.5 13ZM13 16.5C13 17.8807 11.8807 19 10.5 19C9.11929 19 8 17.8807 8 16.5C8 15.1193 9.11929 14 10.5 14C11.8807 14 13 15.1193 13 16.5ZM10.5 25C11.8807 25 13 23.8807 13 22.5C13 21.1193 11.8807 20 10.5 20C9.11929 20 8 21.1193 8 22.5C8 23.8807 9.11929 25 10.5 25ZM25 22.5C25 23.8807 23.8807 25 22.5 25C21.1193 25 20 23.8807 20 22.5C20 21.1193 21.1193 20 22.5 20C23.8807 20 25 21.1193 25 22.5ZM22.5 19C23.8807 19 25 17.8807 25 16.5C25 15.1193 23.8807 14 22.5 14C21.1193 14 20 15.1193 20 16.5C20 17.8807 21.1193 19 22.5 19Z" fill="white"/>
</svg>
