<svg width="33" height="33" viewBox="0 0 33 33" fill="none" xmlns="http://www.w3.org/2000/svg">
<rect width="33" height="33" fill="#FDF187"/>
<rect x="6" y="6" width="21" height="21" rx="2" fill="#FFE606"/>
<path fill-rule="evenodd" clip-rule="evenodd" d="M10.5 13C11.8807 13 13 11.8807 13 10.5C13 9.11929 11.8807 8 10.5 8C9.11929 8 8 9.11929 8 10.5C8 11.8807 9.11929 13 10.5 13ZM22.5 13C23.8807 13 25 11.8807 25 10.5C25 9.11929 23.8807 8 22.5 8C21.1193 8 20 9.11929 20 10.5C20 11.8807 21.1193 13 22.5 13ZM13 22.5C13 23.8807 11.8807 25 10.5 25C9.11929 25 8 23.8807 8 22.5C8 21.1193 9.11929 20 10.5 20C11.8807 20 13 21.1193 13 22.5ZM22.5 25C23.8807 25 25 23.8807 25 22.5C25 21.1193 23.8807 20 22.5 20C21.1193 20 20 21.1193 20 22.5C20 23.8807 21.1193 25 22.5 25Z" fill="white"/>
</svg>
