<svg width="40" height="40" viewBox="0 0 40 40" fill="none" xmlns="http://www.w3.org/2000/svg">
<rect width="40" height="40" fill="#4A82EE"/>
<path fill-rule="evenodd" clip-rule="evenodd" d="M16 6.75C16 6.33579 16.3358 6 16.75 6C17.1251 6 17.4359 6.27534 17.4912 6.63493C17.5327 6.64539 17.5742 6.65866 17.6154 6.67485L32.629 12.5692C33.4751 12.9013 33.4751 14.0987 32.629 14.4308L17.6154 20.3251C17.5771 20.3402 17.5386 20.3527 17.5 20.3628V29H25C25.5523 29 26 29.4477 26 30C26 30.5523 25.5523 31 25 31H9C8.44772 31 8 30.5523 8 30C8 29.4477 8.44772 29 9 29H16V6.75Z" fill="#003FB9"/>
</svg>
