<svg width="65" height="65" viewBox="0 0 65 65" fill="none" xmlns="http://www.w3.org/2000/svg">
<path fill-rule="evenodd" clip-rule="evenodd" d="M14 20C14 19.4477 14.4477 19 15 19H24C24.5523 19 25 19.4477 25 20V21H43C43.5523 21 44 21.4477 44 22H58H62C62.5523 22 63 22.4477 63 23V24C63 24.5523 62.5523 25 62 25H58C58 25.5523 57.5523 26 57 26H46C51.5228 26 56 30.4772 56 36C56 41.5228 51.5228 46 46 46H13C7.47715 46 3 41.5228 3 36C3 30.4772 7.47715 26 13 26H14V20Z" fill="#FFE606"/>
<path fill-rule="evenodd" clip-rule="evenodd" d="M32.1127 27.8701L5.24264 1L1 5.24264L27.8701 32.1127L1 58.9828L5.24264 63.2254L32.1127 36.3553L58.9828 63.2254L63.2254 58.9828L36.3553 32.1127L63.2254 5.24264L58.9828 1L32.1127 27.8701Z" fill="black"/>
</svg>
