<svg width="40" height="40" viewBox="0 0 40 40" fill="none" xmlns="http://www.w3.org/2000/svg">
<g clip-path="url(#clip0_0_1)">
<rect width="40" height="40" fill="#FFE606"/>
<g clip-path="url(#clip1_0_1)">
<path d="M25.6506 11.1962L10.9282 19.6962C9.97162 20.2484 9.64387 21.4716 10.1962 22.4282L18.6962 37.1506C19.2484 38.1072 20.4716 38.435 21.4282 37.8827L36.1506 29.3827C37.1072 28.8304 37.435 27.6072 36.8827 26.6506L28.3827 11.9282C27.8304 10.9716 26.6072 10.6439 25.6506 11.1962Z" fill="#003FB9"/>
<path fill-rule="evenodd" clip-rule="evenodd" d="M16.5933 24.5083C17.789 23.818 18.1987 22.289 17.5083 21.0933C16.818 19.8975 15.289 19.4879 14.0933 20.1782C12.8975 20.8686 12.4878 22.3975 13.1782 23.5933C13.8686 24.789 15.3975 25.1987 16.5933 24.5083ZM26.9856 18.5083C28.1813 17.818 28.591 16.289 27.9006 15.0933C27.2103 13.8975 25.6813 13.4879 24.4856 14.1782C23.2899 14.8686 22.8802 16.3975 23.5705 17.5933C24.2609 18.789 25.7899 19.1987 26.9856 18.5083ZM20.5083 26.2894C21.1987 27.4851 20.789 29.0141 19.5933 29.7045C18.3975 30.3948 16.8686 29.9851 16.1782 28.7894C15.4879 27.5937 15.8975 26.0647 17.0933 25.3744C18.289 24.684 19.818 25.0937 20.5083 26.2894ZM22.5933 34.9006C23.789 34.2103 24.1987 32.6813 23.5083 31.4856C22.818 30.2899 21.289 29.8802 20.0933 30.5705C18.8975 31.2609 18.4879 32.7899 19.1782 33.9856C19.8686 35.1813 21.3975 35.591 22.5933 34.9006ZM33.9006 25.4856C34.591 26.6813 34.1813 28.2103 32.9856 28.9006C31.7899 29.591 30.2609 29.1813 29.5705 27.9856C28.8802 26.7899 29.2899 25.2609 30.4856 24.5705C31.6813 23.8802 33.2103 24.2899 33.9006 25.4856ZM29.9856 23.7045C31.1813 23.0141 31.591 21.4851 30.9006 20.2894C30.2103 19.0937 28.6813 18.684 27.4856 19.3744C26.2899 20.0647 25.8802 21.5937 26.5705 22.7894C27.2609 23.9851 28.7899 24.3948 29.9856 23.7045Z" fill="white"/>
</g>
<path d="M23.6621 3.29803L6.92035 6.25005C5.83256 6.44186 5.10623 7.47917 5.29803 8.56696L8.25005 25.3087C8.44186 26.3965 9.47917 27.1228 10.567 26.931L27.3087 23.979C28.3965 23.7872 29.1228 22.7499 28.931 21.6621L25.979 4.92035C25.7872 3.83256 24.7499 3.10623 23.6621 3.29803Z" fill="#B90000"/>
<path d="M26.5866 20.0534L9.38442 8.00832C8.93202 7.69154 8.30847 7.80149 7.99169 8.25389L7.54745 8.88834C7.23067 9.34075 7.34062 9.96429 7.79302 10.2811L24.9952 22.3262C25.4476 22.643 26.0712 22.533 26.3879 22.0806L26.8322 21.4462C27.149 20.9937 27.039 20.3702 26.5866 20.0534Z" fill="white"/>
</g>
<defs>
<clipPath id="clip0_0_1">
<rect width="40" height="40" fill="white"/>
</clipPath>
<clipPath id="clip1_0_1">
<rect width="33" height="33" fill="white" transform="translate(1 18.5) rotate(-30)"/>
</clipPath>
</defs>
</svg>
