<svg width="70" height="70" viewBox="0 0 70 70" fill="none" xmlns="http://www.w3.org/2000/svg">
<rect width="70" height="70" fill="#E63737"/>
<path fill-rule="evenodd" clip-rule="evenodd" d="M16 22C16 21.4477 16.4477 21 17 21H26C26.5523 21 27 21.4477 27 22V23H45C45.5523 23 46 23.4477 46 24H60H64C64.5523 24 65 24.4477 65 25V26C65 26.5523 64.5523 27 64 27H60C60 27.5523 59.5523 28 59 28H48C53.5228 28 58 32.4772 58 38C58 43.5228 53.5228 48 48 48H15C9.47715 48 5 43.5228 5 38C5 32.4772 9.47715 28 15 28H16V22Z" fill="#B90000"/>
</svg>